HIERARCHY
ROOT Hips
{
	OFFSET 0.00000 0.00000 0.00000
	CHANNELS 6 Xposition Yposition Zposition Yrotation Zrotation Xrotation 
	JOINT Lumbar
	{
		OFFSET 0 0 0
		CHANNELS 3 Zrotation Xrotation Yrotation
		JOINT Neck
		{
			OFFSET 0.00 0.2701 0.00
			CHANNELS 3 Zrotation Xrotation Yrotation
			End Site
			{
				OFFSET 0.00 0.1379 0.00
			}
		}
		JOINT RightShoulder
		{
			OFFSET 0.0119 0.2289 0.1181
			CHANNELS 3 Zrotation Xrotation Yrotation
			JOINT RightElbow
			{
				OFFSET 0.00 -0.1475 0.00
				CHANNELS 2 Zrotation Yrotation
				JOINT RightWrist
				{
					OFFSET 0.00 -0.1605 0.00
					CHANNELS 2 Zrotation Xrotation
					End Site
					{
						OFFSET 0.0040 -0.1068 0.0006
					}
				}
			}
		}
		JOINT LeftShoulder
		{
			OFFSET 0.0119 0.2289 -0.1181
			CHANNELS 3 Zrotation Xrotation Yrotation
			JOINT LeftElbow
			{
				OFFSET 0.00 -0.1475 0.00
				CHANNELS 2 Zrotation Yrotation
				JOINT LeftWrist
				{
					OFFSET 0.00 -0.1605 0.00
					CHANNELS 2 Zrotation Xrotation
					End Site
					{
						OFFSET 0.0040 -0.1068 -0.0006
					}
				}
			}
		}
	}
	JOINT RightHip
	{
		OFFSET 0.0316 -0.0424 0.0458
		CHANNELS 3 Zrotation Xrotation Yrotation
		JOINT RightKnee
		{
			OFFSET 0.00 -0.2438 0.00
			CHANNELS 1 Zrotation
			JOINT RightAnkle
			{
				OFFSET 0.00 -0.2449 0.00
				CHANNELS 3 Zrotation Xrotation Yrotation
				End Site
				{
					OFFSET 0.1237 -0.0542 0.0051
				}
			}
		}
	}
	JOINT LeftHip
	{
		OFFSET 0.0316 -0.0424 -0.0458
		CHANNELS 3 Zrotation Xrotation Yrotation
		JOINT LeftKnee
		{
			OFFSET 0.00 -0.2438 0.00
			CHANNELS 1 Zrotation
			JOINT LeftAnkle
			{
				OFFSET 0.00 -0.2449 0.00
				CHANNELS 3 Zrotation Xrotation Yrotation
				End Site
				{
					OFFSET 0.1237 -0.0542 -0.0051
				}
			}
		}
	}
}
MOTION
Frames: 27
Frame Time: 0.02
-6e-05 9e-05 0.00014 -176.58591 -45.89559 0.66269 56.71778 -0.79843 -2.45832 -9.63264 -1.30947 -1.1981 166.38597 -75.14246 -43.61427 16.05335 70.97764 -2.73154 -11.32945 -3.11743 109.19942 -55.63394 5.78696 -82.88375 18.51373 2.54309 48.38413 -3.38213 -12.65339 -18.51435 -6.92489 -3.01873 -3.73204 53.10739 5.26996 7.47208 -24.19287 -8.05379 3.36887 3.93834
0.00039 0.00012 0.00013 -176.56415 -45.86951 0.66474 56.6597 -0.81001 -2.46375 -9.68668 -1.2779 -1.19844 166.38254 -75.08662 -43.73986 16.02158 71.01464 -2.68299 -11.32476 -3.28052 109.18875 -55.63427 5.78695 -82.86422 18.47049 2.58391 48.40527 -3.37295 -12.56907 -18.51603 -6.93586 -3.02988 -3.73704 53.12876 5.29219 7.57704 -24.19419 -8.05378 3.35989 3.93335
0.00084 0.00015 0.00011 -176.54253 -45.84348 0.66678 56.60167 -0.82153 -2.46912 -9.74056 -1.24645 -1.19878 166.37891 -75.03096 -43.86537 15.98982 71.05158 -2.63451 -11.32004 -3.44155 109.17769 -55.63332 5.78699 -82.84448 18.42716 2.62469 48.42641 -3.36378 -12.4849 -18.51771 -6.94682 -3.04101 -3.74203 53.15011 5.31441 7.68189 -24.1955 -8.05378 3.35091 3.92837
0.00129 0.00018 0.0001 -176.52085 -45.81747 0.66883 56.54376 -0.83308 -2.47453 -9.79444 -1.21498 -1.19912 166.37549 -74.97529 -43.99058 15.95812 71.08847 -2.58609 -11.31536 -3.60555 109.16738 -55.6347 5.78694 -82.82515 18.38416 2.66531 48.44749 -3.35462 -12.4008 -18.51939 -6.95776 -3.05214 -3.74702 53.17142 5.33658 7.78657 -24.19681 -8.05378 3.34195 3.92339
0.00174 0.00021 8e-05 -176.49903 -45.79142 0.67091 56.48584 -0.84469 -2.48003 -9.84846 -1.18337 -1.19945 166.37226 -74.91944 -44.11586 15.92646 71.1254 -2.53763 -11.31072 -3.76764 109.15654 -55.6344 5.78696 -82.80561 18.34094 2.7062 48.46854 -3.34547 -12.31668 -18.52106 -6.96871 -3.06329 -3.75202 53.19276 5.35873 7.89125 -24.19813 -8.05378 3.333 3.91842
0.00219 0.00023 7e-05 -176.47784 -45.76545 0.67284 56.42755 -0.85603 -2.48513 -9.90204 -1.15228 -1.1998 166.36774 -74.86418 -44.24188 15.89451 71.16237 -2.48912 -11.30583 -3.92388 109.14443 -55.63015 5.7871 -82.78515 18.29719 2.74689 48.48988 -3.33624 -12.23243 -18.52275 -6.97965 -3.07437 -3.75699 53.21416 5.38107 7.99641 -24.19942 -8.05378 3.32397 3.91342
0.00264 0.00026 6e-05 -176.45537 -45.73934 0.67507 56.37012 -0.8679 -2.49102 -9.95649 -1.12017 -1.20012 166.36606 -74.80778 -44.36602 15.86312 71.19921 -2.44077 -11.30145 -4.10368 109.1377 -55.64294 5.78667 -82.76793 18.25558 2.78726 48.51058 -3.32717 -12.14837 -18.52441 -6.99062 -3.08559 -3.76202 53.23535 5.40303 8.10058 -24.20076 -8.05376 3.31511 3.90847
0.00309 0.00029 4e-05 -176.43412 -45.71338 0.67702 56.31182 -0.87927 -2.49616 -10.01007 -1.08901 -1.20048 166.36132 -74.75247 -44.49236 15.83129 71.23618 -2.39227 -11.29661 -4.23992 109.12087 -55.62344 5.78733 -82.74526 18.21012 2.82915 48.53194 -3.318 -12.06442 -18.52611 -7.00155 -3.09665 -3.76698 53.25682 5.42532 8.20553 -24.20206 -8.05378 3.3061 3.90348
0.00355 0.00032 3e-05 -176.41423 -45.6875 0.67867 56.25271 -0.89008 -2.50048 -10.06289 -1.05896 -1.20081 166.35454 -74.69834 -44.61963 15.79861 71.27326 -2.34354 -11.29117 -4.40941 109.112 -55.63 5.78711 -82.72562 18.16732 2.86807 48.55386 -3.30852 -11.97941 -18.52781 -7.01249 -3.10764 -3.77192 53.27833 5.4481 8.31203 -24.2033 -8.05379 3.29687 3.89842
0.00398 0.00035 1e-05 -176.38612 -45.66086 0.68218 56.19904 -0.90429 -2.50982 -10.12098 -1.02237 -1.20108 166.36462 -74.63693 -44.73626 15.7699 71.3096 -2.29599 -11.28905 -4.64756 109.11839 -55.68359 5.78529 -82.71769 18.13134 2.90955 48.5718 -3.30025 -11.89692 -18.52933 -7.02353 -3.11943 -3.77719 53.2987 5.4683 8.41139 -24.20487 -8.05369 3.28879 3.8937
0.00446 0.00038 -0 -176.3756 -45.63603 0.68166 56.13341 -0.9112 -2.5084 -10.16736 -0.9997 -1.20161 166.33587 -74.59122 -44.87867 15.73341 71.34757 -2.24606 -11.28003 -4.57493 109.05363 -55.51228 5.79112 -82.66647 18.06688 2.95493 48.59864 -3.28977 -11.81142 -18.53134 -7.03429 -3.12928 -3.78163 53.32204 5.4938 8.52466 -24.20575 -8.05392 3.27838 3.88831
0.00504 0.00042 -3e-05 -176.41198 -45.61448 0.67068 56.0383 -0.89894 -2.47831 -10.18544 -1.01482 -1.2018 166.22623 -74.5861 -45.06618 15.67032 71.3898 -2.18832 -11.25054 -5.05506 109.12356 -55.78601 5.78182 -82.65375 18.0436 2.93097 48.64645 -3.27031 -11.69774 -18.53402 -7.04495 -3.13567 -3.78485 53.34938 5.53537 8.68594 -24.2046 -8.05404 3.2606 3.88054
0.00566 0.00047 -5e-05 -176.46641 -45.59518 0.65543 55.93041 -0.87911 -2.43717 -10.19054 -1.04408 -1.20247 166.0729 -74.59721 -45.28492 15.60026 71.43387 -2.12824 -11.21401 -4.9997 109.06951 -55.66332 5.78603 -82.57264 17.97271 2.92305 48.70408 -3.24905 -11.58418 -18.53734 -7.05527 -3.13975 -3.78706 53.38065 5.58208 8.8593 -24.20276 -8.05464 3.24062 3.87219
0.00628 0.00051 -8e-05 -176.51332 -45.57577 0.64189 55.82638 -0.86233 -2.40064 -10.19974 -1.06705 -1.20358 165.92269 -74.60252 -45.50532 15.53704 71.47706 -2.07033 -11.18223 -4.22396 108.84571 -54.99472 5.80878 -82.41469 17.84167 2.96349 48.75917 -3.23066 -11.48431 -18.54078 -7.06526 -3.14366 -3.78907 53.4126 5.62527 9.02078 -24.20137 -8.05569 3.22234 3.86449
0.00684 0.00055 -0.0001 -176.55684 -45.552 0.62977 55.73119 -0.84761 -2.36617 -10.21864 -1.08917 -1.2018 165.84277 -74.60121 -45.65635 15.45891 71.51985 -2.00858 -11.14557 -7.36258 109.54063 -57.28202 5.731 -82.69475 18.04295 2.78015 48.8052 -3.20408 -11.32874 -18.54238 -7.07706 -3.15276 -3.79388 53.43339 5.67301 9.20948 -24.19953 -8.05399 3.20128 3.85523
0.00752 0.0006 -0.00014 -176.61239 -45.53848 0.61312 55.61375 -0.82629 -2.32434 -10.21161 -1.11681 -1.20626 165.60644 -74.61756 -45.96242 15.40944 71.56463 -1.95324 -11.11529 -2.41329 108.33716 -53.45474 5.86123 -82.0682 17.55692 3.05279 48.87366 -3.19353 -11.28628 -18.54811 -7.08529 -3.15043 -3.7926 53.47928 5.7131 9.34409 -24.19834 -8.05806 3.18529 3.84896
0.00848 0.00066 -0.00019 -176.69075 -45.54749 0.59017 55.44474 -0.79312 -2.26891 -10.15922 -1.1528 -1.22693 164.94299 -74.67825 -46.66408 15.44643 71.60933 -1.92492 -11.12236 26.3963 101.53665 -31.66531 6.60135 -78.77205 15.04389 4.70136 48.99131 -3.23313 -11.58135 -18.56394 -7.08143 -3.11795 -3.77492 53.58594 5.72541 9.32874 -24.2001 -8.07863 3.18548 3.85208
0.00955 0.00072 -0.00025 -176.7816 -45.56775 0.56202 55.25238 -0.75283 -2.20572 -10.07724 -1.19444 -1.25403 164.12273 -74.75615 -47.5267 15.511 71.6577 -1.90139 -11.1327 63.02311 92.90022 -3.95162 7.54275 -74.6037 11.8657 6.78652 49.13325 -3.28798 -11.98563 -18.58419 -7.0744 -3.07397 -3.75114 53.71927 5.73073 9.25825 -24.20241 -8.10493 3.19058 3.85806
0.01059 0.00078 -0.00031 -176.87079 -45.58629 0.53269 55.06647 -0.71266 -2.1434 -9.99317 -1.2358 -1.27879 163.38074 -74.82658 -48.33016 15.55983 71.70674 -1.87009 -11.12977 94.97609 85.35911 20.27445 8.36693 -70.94995 9.08612 8.5916 49.27066 -3.3322 -12.32321 -18.60311 -7.07035 -3.03463 -3.73 53.84517 5.74301 9.21129 -24.20373 -8.12811 3.19228 3.86204
0.01155 0.00085 -0.00037 -176.94412 -45.59054 0.51754 54.89826 -0.6849 -2.09178 -9.97268 -1.26818 -1.30112 162.61601 -74.89647 -49.06999 15.6238 71.74279 -1.8628 -11.17644 131.65718 76.71866 47.85632 9.30159 -66.77964 5.90391 10.73878 49.38039 -3.39168 -12.7324 -18.61896 -7.05983 -2.99741 -3.70926 53.95084 5.74009 9.17059 -24.20791 -8.15328 3.19865 3.86883
0.01271 0.00091 -0.00043 -177.05266 -45.62724 0.47245 54.68706 -0.63031 -2.01634 -9.81489 -1.3202 -1.32999 161.85148 -74.97088 -49.98729 15.66054 71.81073 -1.80609 -11.12054 160.37024 69.92508 69.86995 10.05212 -63.49787 3.39582 12.28096 49.55411 -3.4234 -13.01895 -18.64253 -7.06198 -2.95339 -3.68642 54.10562 5.76638 9.10436 -24.20656 -8.17591 3.19673 3.87059
0.01438 0.00097 -0.00052 -177.25952 -45.75054 0.33948 54.36901 -0.49816 -1.87588 -9.26784 -1.42701 -1.37569 161.20867 -75.0582 -51.29242 15.63438 71.93039 -1.61605 -10.78003 164.888 68.75761 74.84168 10.25917 -62.71452 2.97392 12.00769 49.89321 -3.37139 -12.93478 -18.68427 -7.10047 -2.89061 -3.6579 54.38431 5.88108 8.97455 -24.18778 -8.18812 3.16873 3.85647
0.01625 0.00103 -0.00061 -177.50024 -45.90623 0.17787 54.00718 -0.34031 -1.71204 -8.58675 -1.55296 -1.42766 160.55139 -75.14896 -52.78085 15.5757 72.08772 -1.37496 -10.33528 161.15955 69.49982 74.01461 10.27145 -62.88145 3.24198 11.11574 50.2972 -3.29158 -12.72414 -18.73435 -7.15174 -2.82194 -3.62774 54.71287 6.02428 8.82215 -24.16405 -8.19799 3.13258 3.8374
0.01805 0.00109 -0.00069 -177.72299 -46.04715 0.03354 53.66174 -0.19762 -1.55964 -7.97871 -1.66884 -1.47655 159.85279 -75.23443 -54.22811 15.52024 72.2522 -1.15486 -9.93996 161.39654 69.316 76.01919 10.36327 -62.73166 3.15384 10.5341 50.67449 -3.22668 -12.57524 -18.78153 -7.19674 -2.75776 -3.5992 55.02149 6.15043 8.6843 -24.14361 -8.21024 3.10152 3.82143
0.01978 0.00115 -0.00079 -177.95822 -46.18835 -0.12932 53.33127 -0.03978 -1.40331 -7.31918 -1.79075 -1.52671 159.37076 -75.3344 -55.50862 15.51714 72.31805 -0.94569 -9.54031 161.01605 69.30777 77.52075 10.4992 -62.08937 3.22283 9.85186 51.03934 -3.15262 -12.41324 -18.82373 -7.24348 -2.68539 -3.56669 55.3179 6.29363 8.52627 -24.11778 -8.21701 3.06488 3.80203
0.0217 0.00121 -0.00087 -178.17389 -46.33693 -0.25989 52.95828 0.09227 -1.24997 -6.7345 -1.90454 -1.57554 158.41137 -75.40707 -57.17097 15.39365 72.59356 -0.69978 -9.11957 159.82467 69.41857 78.46652 10.49537 -62.67971 3.13663 9.21751 51.44712 -3.09095 -12.2457 -18.87996 -7.28981 -2.62899 -3.54222 55.6533 6.40822 8.40582 -24.10329 -8.2347 3.03772 3.78849
0.02403 0.0013 -0.00091 -178.33945 -46.49398 -0.29782 52.48886 0.14886 -1.10836 -6.3975 -1.99133 -1.61996 156.34209 -75.3814 -59.86847 14.9789 73.48017 -0.39197 -8.71505 158.67795 69.33622 80.58699 10.15012 -66.70871 2.45631 8.94518 51.94084 -3.06936 -12.10585 -18.95855 -7.33056 -2.61671 -3.53967 56.06628 6.43668 8.39425 -24.11066 -8.28195 3.0399 3.793
